<svg width="50" height="25" viewBox="0 0 50 25" fill="none" xmlns="http://www.w3.org/2000/svg">
<rect width="50" height="25" rx="12.5" fill="#4F4F4F"/>
<circle cx="12.9286" cy="11.9286" r="8.92857" fill="white"/>
<g clip-path="url(#clip0_377_354)">
<path d="M9.94331 7.82333L8.89331 6.77916L8.07081 7.60166L9.11498 8.64583L9.94331 7.82333ZM6.58331 11.125H8.33331V12.2917H6.58331V11.125ZM12.4166 5.32083H13.5833V7.04166H12.4166V5.32083ZM17.1066 6.77625L17.928 7.597L16.8838 8.64116L16.0631 7.81983L17.1066 6.77625ZM16.0566 15.5933L17.1008 16.6433L17.9233 15.8208L16.8733 14.7767L16.0566 15.5933ZM17.6666 11.125H19.4166V12.2917H17.6666V11.125ZM13 8.20833C11.0691 8.20833 9.49998 9.7775 9.49998 11.7083C9.49998 13.6392 11.0691 15.2083 13 15.2083C14.9308 15.2083 16.5 13.6392 16.5 11.7083C16.5 9.7775 14.9308 8.20833 13 8.20833ZM13 14.0417C11.7108 14.0417 10.6666 12.9975 10.6666 11.7083C10.6666 10.4192 11.7108 9.375 13 9.375C14.2891 9.375 15.3333 10.4192 15.3333 11.7083C15.3333 12.9975 14.2891 14.0417 13 14.0417ZM12.4166 16.375H13.5833V18.0958H12.4166V16.375ZM8.07081 15.815L8.89331 16.6375L9.93748 15.5875L9.11498 14.765L8.07081 15.815Z" fill="#918E9B"/>
</g>
<defs>
<clipPath id="clip0_377_354">
<rect width="14" height="14" fill="white" transform="translate(6 5)"/>
</clipPath>
</defs>
</svg>
