<svg width="30" height="25" viewBox="0 0 30 25" fill="none" xmlns="http://www.w3.org/2000/svg">
<g clip-path="url(#clip0_114_97)">
<path d="M18.2432 10.1351C18.2432 8.52234 17.6026 6.9756 16.4621 5.83517C15.3217 4.69475 13.775 4.05407 12.1622 4.05407C10.5494 4.05407 9.00262 4.69475 7.86219 5.83517C6.72177 6.9756 6.08109 8.52234 6.08109 10.1351V18.2433H18.2432V10.1351ZM20.2703 18.9193L20.6757 19.4595C20.7321 19.5348 20.7665 19.6243 20.775 19.718C20.7834 19.8117 20.7656 19.906 20.7235 19.9902C20.6814 20.0743 20.6167 20.1451 20.5367 20.1946C20.4566 20.2441 20.3644 20.2703 20.2703 20.2703H4.05406C3.95995 20.2703 3.8677 20.2441 3.78764 20.1946C3.70759 20.1451 3.64289 20.0743 3.6008 19.9902C3.55871 19.906 3.5409 19.8117 3.54935 19.718C3.5578 19.6243 3.59219 19.5348 3.64865 19.4595L4.05406 18.9193V10.1351C4.05406 7.98474 4.9083 5.92241 6.42887 4.40185C7.94943 2.88128 10.0118 2.02704 12.1622 2.02704C14.3126 2.02704 16.3749 2.88128 17.8955 4.40185C19.416 5.92241 20.2703 7.98474 20.2703 10.1351V18.9193ZM9.62838 21.2838H14.696C14.696 21.9558 14.429 22.6003 13.9538 23.0755C13.4786 23.5506 12.8342 23.8176 12.1622 23.8176C11.4902 23.8176 10.8457 23.5506 10.3705 23.0755C9.89533 22.6003 9.62838 21.9558 9.62838 21.2838V21.2838Z" fill="#333333"/>
</g>
<defs>
<clipPath id="clip0_114_97">
<rect width="24.3243" height="24.3243" fill="white"/>
</clipPath>
</defs>
</svg>
