<svg width="30" height="27" viewBox="0 0 30 27" fill="none" xmlns="http://www.w3.org/2000/svg">
<g clip-path="url(#clip0_114_97)">
<path d="M18.2432 12.1351C18.2432 10.5223 17.6026 8.9756 16.4621 7.83517C15.3217 6.69475 13.775 6.05407 12.1622 6.05407C10.5494 6.05407 9.00262 6.69475 7.86219 7.83517C6.72177 8.9756 6.08109 10.5223 6.08109 12.1351V20.2433H18.2432V12.1351ZM20.2703 20.9193L20.6757 21.4595C20.7321 21.5348 20.7665 21.6243 20.775 21.718C20.7834 21.8117 20.7656 21.906 20.7235 21.9902C20.6814 22.0743 20.6167 22.1451 20.5367 22.1946C20.4566 22.2441 20.3644 22.2703 20.2703 22.2703H4.05406C3.95995 22.2703 3.8677 22.2441 3.78764 22.1946C3.70759 22.1451 3.64289 22.0743 3.6008 21.9902C3.55871 21.906 3.5409 21.8117 3.54935 21.718C3.5578 21.6243 3.59219 21.5348 3.64865 21.4595L4.05406 20.9193V12.1351C4.05406 9.98474 4.9083 7.92241 6.42887 6.40185C7.94943 4.88128 10.0118 4.02704 12.1622 4.02704C14.3126 4.02704 16.3749 4.88128 17.8955 6.40185C19.416 7.92241 20.2703 9.98474 20.2703 12.1351V20.9193ZM9.62838 23.2838H14.696C14.696 23.9558 14.429 24.6003 13.9538 25.0755C13.4786 25.5506 12.8342 25.8176 12.1622 25.8176C11.4902 25.8176 10.8457 25.5506 10.3705 25.0755C9.89533 24.6003 9.62838 23.9558 9.62838 23.2838Z" fill="#333333"/>
</g>
<ellipse cx="20.2703" cy="6.05406" rx="5.67568" ry="5.67568" fill="#FF0000"/>
<defs>
<clipPath id="clip0_114_97">
<rect width="24.3243" height="24.3243" fill="white" transform="translate(0 2)"/>
</clipPath>
</defs>
</svg>
