<svg width="25" height="25" viewBox="0 0 25 25" fill="none" xmlns="http://www.w3.org/2000/svg">
<path fill-rule="evenodd" clip-rule="evenodd" d="M4.58625 12.1064C5.74875 12.5053 6.67479 13.4782 7.06229 14.7116L7.10396 14.8366C7.54771 16.1449 7.3675 17.5532 6.62375 18.6095C6.48833 18.8011 6.51854 19.0303 6.66125 19.1386L8.81958 20.7782C8.89562 20.8355 8.96958 20.8355 9.01542 20.8303C9.0675 20.822 9.14354 20.7939 9.205 20.7064L9.44562 20.3647C10.1633 19.347 11.3196 18.7189 12.5404 18.6834C13.9113 18.6553 15.1425 19.2834 15.9092 20.3907L16.0321 20.5689C16.0935 20.6564 16.1685 20.6855 16.2217 20.6939C16.2675 20.7032 16.3425 20.7001 16.4175 20.6418L18.5644 19.022C18.7144 18.9095 18.7477 18.6689 18.6362 18.5074L18.3654 18.1168C17.6675 17.1084 17.4602 15.8001 17.8112 14.6178C18.1925 13.3303 19.1623 12.3116 20.4071 11.8949L20.6165 11.8241C20.7842 11.7689 20.8748 11.5605 20.8154 11.3689L19.9956 8.74281C19.9571 8.61989 19.8779 8.56468 19.8342 8.54177C19.7717 8.50948 19.704 8.50427 19.6394 8.52614L19.2852 8.64385C18.0737 9.04698 16.7373 8.82823 15.7112 8.05635L15.5988 7.97198C14.6237 7.23864 14.0435 6.05635 14.0477 4.81052L14.0498 4.51885C14.0498 4.38031 13.9842 4.29385 13.9446 4.25427C13.9071 4.21573 13.8435 4.16989 13.754 4.16989L11.1008 4.16677C10.9383 4.16677 10.806 4.32198 10.805 4.51364L10.804 4.76573C10.7987 6.03135 10.206 7.23552 9.21854 7.98864L9.08417 8.09073C7.99771 8.91677 6.58104 9.1501 5.29771 8.7126C5.24875 8.69593 5.20292 8.69906 5.15917 8.72198C5.12583 8.73864 5.06542 8.78135 5.03625 8.87614L4.18521 11.5803C4.12375 11.7772 4.22479 11.9824 4.41542 12.048L4.58625 12.1064ZM8.97271 22.9168C8.46646 22.9168 7.97479 22.7522 7.56021 22.4366L5.40188 20.798C4.37062 20.0168 4.1425 18.5136 4.8925 17.448C5.28208 16.8959 5.36229 16.1866 5.13312 15.5136L5.07583 15.3386C4.88521 14.7324 4.44979 14.2616 3.91125 14.0772H3.91021L3.74042 14.0178C2.47167 13.5834 1.79458 12.2386 2.19771 10.9553L3.04771 8.25219C3.24042 7.64073 3.65604 7.14698 4.21854 6.8626C4.76854 6.58552 5.39042 6.54281 5.97167 6.74177C6.59562 6.95427 7.28833 6.83864 7.82271 6.43239L7.95708 6.33031C8.43208 5.96781 8.71854 5.37927 8.72063 4.75739L8.72167 4.50635C8.72688 3.16885 9.79458 2.08344 11.0998 2.08344H11.104L13.7571 2.08656C14.3842 2.0876 14.9758 2.33552 15.4217 2.78448C15.8831 3.24802 16.1352 3.86781 16.1331 4.52927L16.131 4.81989C16.129 5.40948 16.3988 5.96677 16.854 6.30844L16.9654 6.39281C17.4435 6.75219 18.0665 6.85531 18.6258 6.66781L18.979 6.5501C19.58 6.3501 20.2196 6.39906 20.7831 6.6876C21.3613 6.98344 21.7883 7.49281 21.9842 8.12302L22.804 10.7491C23.1998 12.0178 22.5144 13.3866 21.2779 13.8001L21.0685 13.8699C20.4685 14.072 19.9967 14.572 19.8081 15.2095C19.6352 15.7939 19.7352 16.4366 20.0779 16.9303L20.3488 17.3209C21.0925 18.3959 20.855 19.9043 19.8196 20.6845L17.6727 22.3053C17.1571 22.6949 16.5248 22.8522 15.8904 22.7511C15.2508 22.648 14.6925 22.2939 14.3185 21.7543L14.1956 21.5751C13.831 21.0501 13.2477 20.7314 12.6363 20.7657C12.0238 20.7824 11.4946 21.073 11.1487 21.5647L10.9081 21.9064C10.531 22.4407 9.97167 22.7897 9.33521 22.8897C9.21333 22.9084 9.0925 22.9168 8.97271 22.9168ZM12.5 10.9375C11.6385 10.9375 10.9375 11.6385 10.9375 12.5C10.9375 13.3615 11.6385 14.0625 12.5 14.0625C13.3615 14.0625 14.0625 13.3615 14.0625 12.5C14.0625 11.6385 13.3615 10.9375 12.5 10.9375ZM12.5 16.1458C10.4896 16.1458 8.85417 14.5104 8.85417 12.5C8.85417 10.4896 10.4896 8.85416 12.5 8.85416C14.5104 8.85416 16.1458 10.4896 16.1458 12.5C16.1458 14.5104 14.5104 16.1458 12.5 16.1458Z" fill="#333333"/>
</svg>
